<?xml version="1.0" encoding="UTF-8"?>
<svg xmlns="http://www.w3.org/2000/svg" viewBox="0 0 64 64" shape-rendering="crispEdges">
  <!-- Water cup (behind palette) -->
  <rect x="6" y="14" width="14" height="22" fill="#cce8ff" stroke="#1a1a1a" stroke-width="2"/>
  <rect x="6" y="14" width="14" height="4" fill="#79bbff" stroke="#1a1a1a" stroke-width="2"/>
  <!-- Brush (handle + ferrule + bristles) -->
  <rect x="36" y="6" width="6" height="22" fill="#a8643c" stroke="#1a1a1a" stroke-width="2" transform="rotate(25 39 17)"/>
  <rect x="34" y="26" width="10" height="6" fill="#bdbdbd" stroke="#1a1a1a" stroke-width="2" transform="rotate(25 39 29)"/>
  <rect x="32" y="30" width="14" height="8" fill="#1a1a1a" transform="rotate(25 39 34)"/>
  <!-- Palette (kidney shape, simplified to rounded rect with thumb hole) -->
  <path d="M 10 38 L 54 38 Q 60 38 60 44 L 60 54 Q 60 60 54 60 L 18 60 Q 10 60 10 52 L 10 44 Q 10 38 14 38 Z" fill="#d2a574" stroke="#1a1a1a" stroke-width="2"/>
  <!-- Thumb hole -->
  <circle cx="20" cy="50" r="3" fill="#fff" stroke="#1a1a1a" stroke-width="1.5"/>
  <!-- Paint dabs -->
  <circle cx="30" cy="47" r="3.5" fill="#e63946"/>
  <circle cx="40" cy="46" r="3.5" fill="#ffd60a"/>
  <circle cx="50" cy="49" r="3.5" fill="#2a9df4"/>
  <circle cx="35" cy="54" r="3.5" fill="#52b788"/>
  <circle cx="45" cy="55" r="3" fill="#e63946"/>
</svg>
