<?xml version="1.0" encoding="UTF-8"?>
<svg id="Layer_2" data-name="Layer 2" xmlns="http://www.w3.org/2000/svg" viewBox="0 0 188.55 121.05">
  <g id="Layer_1-2" data-name="Layer 1">
    <g>
      <path d="M3.05,67.73c-2.03-1.99-3.05-4.39-3.05-7.21s1.01-5.21,3.05-7.21c2.03-1.99,4.45-2.99,7.27-2.99s5.21,1,7.21,2.99,2.99,4.39,2.99,7.21-1,5.21-2.99,7.21-4.39,2.99-7.21,2.99-5.23-1-7.27-2.99ZM27.6,67.73c-1.99-1.99-2.99-4.39-2.99-7.21s1-5.21,2.99-7.21,4.39-2.99,7.21-2.99,5.23,1,7.27,2.99c2.03,1.99,3.05,4.39,3.05,7.21s-1.02,5.21-3.05,7.21c-2.03,1.99-4.45,2.99-7.27,2.99s-5.21-1-7.21-2.99ZM52.21,67.73c-1.99-1.99-2.99-4.39-2.99-7.21s1-5.21,2.99-7.21,4.39-2.99,7.21-2.99,5.23,1,7.27,2.99c2.03,1.99,3.05,4.39,3.05,7.21s-1.02,5.21-3.05,7.21c-2.03,1.99-4.45,2.99-7.27,2.99s-5.21-1-7.21-2.99ZM76.82,67.73c-1.99-1.99-2.99-4.39-2.99-7.21s1-5.21,2.99-7.21,4.39-2.99,7.21-2.99,5.21,1,7.21,2.99,2.99,4.39,2.99,7.21-1,5.21-2.99,7.21-4.39,2.99-7.21,2.99-5.21-1-7.21-2.99ZM101.43,67.73c-1.99-1.99-2.99-4.39-2.99-7.21s1-5.21,2.99-7.21,4.39-2.99,7.21-2.99,5.21,1,7.21,2.99,2.99,4.39,2.99,7.21-1,5.21-2.99,7.21-4.39,2.99-7.21,2.99-5.21-1-7.21-2.99Z"/>
      <path d="M121.88,17.4c-2.03-1.99-3.05-4.39-3.05-7.21s1.01-5.21,3.05-7.21c2.03-1.99,4.45-2.99,7.27-2.99s5.21,1,7.21,2.99,2.99,4.39,2.99,7.21-1,5.21-2.99,7.21-4.39,2.99-7.21,2.99-5.23-1-7.27-2.99ZM121.88,118.07c-2.03-1.99-3.05-4.39-3.05-7.21s1.01-5.23,3.05-7.27,4.45-3.05,7.27-3.05,5.21,1.02,7.21,3.05c1.99,2.03,2.99,4.45,2.99,7.27s-1,5.21-2.99,7.21-4.39,2.99-7.21,2.99-5.23-1-7.27-2.99ZM146.43,42.6c-1.99-1.99-2.99-4.39-2.99-7.21s1-5.23,2.99-7.27c1.99-2.03,4.39-3.05,7.21-3.05s5.23,1.02,7.27,3.05c2.03,2.03,3.05,4.45,3.05,7.27s-1.02,5.21-3.05,7.21c-2.03,1.99-4.45,2.99-7.27,2.99s-5.21-1-7.21-2.99ZM146.43,92.87c-1.99-1.99-2.99-4.39-2.99-7.21s1-5.21,2.99-7.21,4.39-2.99,7.21-2.99,5.23,1,7.27,2.99c2.03,1.99,3.05,4.39,3.05,7.21s-1.02,5.21-3.05,7.21c-2.03,1.99-4.45,2.99-7.27,2.99s-5.21-1-7.21-2.99ZM171.04,67.73c-1.99-2.03-2.99-4.45-2.99-7.27s1-5.21,2.99-7.21,4.39-2.99,7.21-2.99,5.23,1,7.27,2.99c2.03,1.99,3.05,4.39,3.05,7.21s-1.02,5.23-3.05,7.27-4.45,3.05-7.27,3.05-5.21-1.01-7.21-3.05Z"/>
    </g>
  </g>
</svg>