<?xml version="1.0" encoding="UTF-8"?>
<svg id="Layer_2" data-name="Layer 2" xmlns="http://www.w3.org/2000/svg" viewBox="0 0 3077.12 2514.08">
  <defs>
    <style>
      .cls-1 {
        fill: #e9adce;
      }

      .cls-2 {
        fill: #0b485a;
      }
    </style>
  </defs>
  <g id="Layer_1-2" data-name="Layer 1">
    <g>
      <polygon class="cls-1" points="2243.07 413.84 2917.95 0 2465.91 814.95 3077.12 859.52 2389.53 1367.96 2968.89 1763.61 2161.44 1832.76 2264.73 2224.39 1816.49 2075.58 0 2353.12 926.39 1635.63 37.43 1749.6 1992 34.37 1889.43 627.01 2243.07 413.84"/>
      <g>
        <path class="cls-2" d="M1644.97,1665.79l24.82-77.53-83.86,135.3-50.07,83.48-121.05,37.26c-8.21,2.53-11.25.14-18.11-4.07l-276.9-169.91c8.35,12.31,18.59,20.92,29.1,30.66l115.14,106.74,167.81,155.8,28.87,27.66,7.83,66.07,7.09,65.95-111.59,83.71-288-61.56-120.2-39.59-67.08-20.81c19.92,21.2,41.48,35.63,63.67,52.37l100.86,71.36,112.62,23.19,145.06,31.24,106.93,22.52c29.4-23.81,78.92-17.56,94.82,13.17,7.24,13.99,3.47,34.41-8.78,44.72-26.77,22.55-75.98,19.77-93.35-13.31l-163.92-16.27,121.1,52.02,106.12,46.35c3.57,1.56,10.28.95,14.25-.15,25.73-7.16,55.12-3.84,75.14,13.45,18.91,16.32,17.68,43.63-1.02,58.06-20.33,15.69-44.62,19.34-69.02,12.56-18.82-5.23-33.48-16.84-39.19-36.55l-47.98-16.86-255.3-84.39,56.97,69.42c26.51-6.1,52.24,3.77,65.24,26.33,8.57,14.87,5.32,30.62-6.11,42.58-22.23,23.26-69.29,23.29-90.73-1.23-9.16-10.48-9.96-23.98-9.08-38.4l-80.97-63.49-58.88-45.28-85.75-66.54-289.64-218.7-14.01-109.61,68.61-48.53,139.61,22.76,185.54,28.78,138.96,18.9-366.96-115.15c-12.35-3.88-27.49-5.73-37.23-13.28l-101.22-78.37c-4.41-5.44-6.49-10.95-8.01-17.91l-26.79-122.5,144.38-191.6,53.76-70.54,75.06-98.87,79.74-104.3,84.87-113.04,70.47-90.71,292.16-106.59,372.22-135.29c6-2.18,8.73-5.67,9.57-11.41,5.45-37.35,21.4-71.16,49.18-96.24,40.92-36.94,95.27-53.84,149.58-42.88,17.54,3.54,33.38,10.42,49.15,18.62,46.63,24.23,69.09,61.89,80.39,113.89l113.08,36.53c64.21,20.74,126.03,42.98,186.84,73.19l37.28,62.16c10.29,17.16,15.01,36.34,17.42,56.55l-213.96,57.23-168.83,45.07c-8.45,2.26-15.48,5.25-24.48,5.67-36.9-57.77-108.41-76.55-170.32-47.94-43.26,19.99-74.86,67.33-76.71,114.69l-249.6,66.78-359.48,95.86c-9.89,4.23-18.33,13.49-26.33,20.61l-223.11,198.4-83.49,74.7-55.06,48.36,3.92,4.15,88.09-20.76c24.94-11.24,44.16-35.55,64.49-53.55l20.7-18.33,217.59-193.69c6.13-5.46,12.03-10.54,19.49-12.51l115.62-30.54,209.64-56.32,121.23-32.97,144.58-37.59c21.94,53.08,73.62,90.42,130.4,87.33,38.65.24,72.04-17.3,96.88-45.92,26.5-30.54,40.07-69.96,31.49-111.27l219.19-57.79,79.05-21.3,83.64-21.79c.82-.21,3.74-.2,3.53.48l-1.15,3.67-30.71,87.09c-4.51,12.8-12.44,24.53-21.77,34.26l-41.1,42.88-34.96,34.97-54.99,50.99-91.34,76.84-167.8,125.95-91.18,61.15-46.83,76.96-52.77,89.44-70.57,119.28-31.04,51.27,59.23,115.41,22.74,43.4,24.66,44.83,23.37,46.34,133.41-71.12c.41-28.4,19.71-48.44,47.11-50.67,18.24-1.49,36.39,3.07,48.25,17.78,9.66,11.97,11.12,27.92,5.27,42.2-10.57,25.8-41.58,33.41-69.99,24.98l-15.44,11.01-59.43,50.84c-.26,1.52-.52,3.5.25,3.48l5.21-.14,183.62-5.94c17.8-24.42,48.66-31.56,75.39-19.31,14.25,6.53,22.58,18.79,25.26,32.24,3.06,15.37-1.17,31.45-13.24,41.58-24.85,20.85-59.21,19.24-81.88-5.25l-137.22,22.06-39.68,6.24-5.23.48c-1.1.1-1.42,3.44-.44,3.95l4.6,2.42,46.28,24.1,52.69,30.31c19.4-9.67,41.18-9.44,58.83,1.53,22.12,13.76,27.58,40.21,12.36,61.51-9.26,12.95-25.29,18.21-41.37,19.57-27.35,2.32-50.84-15.94-54.17-43.72l-246.45-71.28-141.25-168.7-114.55-138.26,34.1-104.09,45.28-141.46Z"/>
        <path class="cls-2" d="M2260.16,1886.01c17.22,23.02,8.28,53.55-16.52,65.34-17.72,8.42-38.91,6.44-54.95-4.13-18.54-12.22-26.62-32.64-17.57-54.77l-118.67-107.63-62.68,62.57-18.19,19.34c10.8,22.16,2.01,48.44-21.29,59.44-18.15,8.57-40.65,7.55-57.52-2.87-22.04-13.62-27.47-40.5-11.47-60.53,10.83-13.56,26.28-19.98,44.67-20.89l26.17-50.11,30.72-61.77-28.76-28.46-31.99-30.39,27.05-48.32,34.8-55.31,22.44-26.37,27.73,28.32,60.49,71.41,17.86,20.74,70.93,1.37,113.91,1.32c19.49-28.47,64.61-28.1,85.5-5.84,16.54,17.63,15.31,45.8-3.41,60.09-25.23,19.25-58.71,16.34-78.92-7.47l-87.97,15,143.2,58.75c17.52-8.17,35.16-10.15,52.83-3.6,20.59,7.62,35.92,30.18,28.74,51.86-7.67,23.16-31.09,34.34-53.82,32.67-22.66-1.67-39.86-16.83-47.5-39.48l-185.42-45.9,61.11,86.06c18.56-.22,37.19,4.38,48.53,19.55Z"/>
        <path class="cls-2" d="M643.42,1523.5l-74.35-43.23-6.55-98.08,350.66-350.61c7.43-5.83,13.65-8.75,22.29-10.28l102.09-18.17-129.37,170.69-86.76,113.28-69.05,91.17-108.96,145.24Z"/>
      </g>
    </g>
  </g>
</svg>