<?xml version="1.0" encoding="UTF-8"?>
<svg id="Layer_2" data-name="Layer 2" xmlns="http://www.w3.org/2000/svg" viewBox="0 0 1565.23 140.06">
  <defs>
    <style>
      .cls-1 {
        opacity: .33;
      }

      .cls-1, .cls-2, .cls-3, .cls-4, .cls-5, .cls-6, .cls-7, .cls-8, .cls-9, .cls-10, .cls-11, .cls-12, .cls-13, .cls-14, .cls-15, .cls-16, .cls-17, .cls-18, .cls-19, .cls-20, .cls-21, .cls-22, .cls-23, .cls-24, .cls-25, .cls-26, .cls-27, .cls-28, .cls-29, .cls-30, .cls-31, .cls-32 {
        fill: #ff2a00;
      }

      .cls-2 {
        opacity: .62;
      }

      .cls-3 {
        opacity: .64;
      }

      .cls-4 {
        opacity: .61;
      }

      .cls-5 {
        opacity: .59;
      }

      .cls-6 {
        opacity: .58;
      }

      .cls-7 {
        opacity: .56;
      }

      .cls-8 {
        opacity: .6;
      }

      .cls-9 {
        opacity: .55;
      }

      .cls-10 {
        opacity: .53;
      }

      .cls-11 {
        opacity: .57;
      }

      .cls-12 {
        opacity: .52;
      }

      .cls-13 {
        opacity: .38;
      }

      .cls-14 {
        opacity: .37;
      }

      .cls-15 {
        opacity: .36;
      }

      .cls-16 {
        opacity: .35;
      }

      .cls-17 {
        opacity: .34;
      }

      .cls-18 {
        opacity: .65;
      }

      .cls-19 {
        opacity: .54;
      }

      .cls-20 {
        opacity: .51;
      }

      .cls-21 {
        opacity: .5;
      }

      .cls-22 {
        opacity: .49;
      }

      .cls-23 {
        opacity: .48;
      }

      .cls-24 {
        opacity: .47;
      }

      .cls-25 {
        opacity: .43;
      }

      .cls-26 {
        opacity: .42;
      }

      .cls-27 {
        opacity: .44;
      }

      .cls-28 {
        opacity: .4;
      }

      .cls-29 {
        opacity: .39;
      }

      .cls-30 {
        opacity: .41;
      }

      .cls-31 {
        opacity: .45;
      }

      .cls-32 {
        opacity: .46;
      }
    </style>
  </defs>
  <g id="Layer_1-2" data-name="Layer 1">
    <g id="_33-66" data-name="33-66">
      <path class="cls-12" d="M.1,9.88c-.07-.52-.1-1.04-.1-1.56,0-1.76.52-3.35,1.56-4.79C2.93,1.64,4.79.5,7.13.11c.52-.06,1.01-.1,1.46-.1,1.76,0,3.38.52,4.88,1.56,1.89,1.43,3.03,3.32,3.42,5.66.06.52.13,1.04.2,1.56,0,1.76-.55,3.35-1.66,4.79-1.37,1.89-3.22,3.03-5.57,3.42-.52.07-1.01.1-1.46.1-1.76-.06-3.39-.62-4.88-1.66C1.63,14.01.49,12.15.1,9.88Z"/>
      <path class="cls-24" d="M.1,132.92c-.07-.52-.1-1.04-.1-1.56,0-1.76.52-3.35,1.56-4.79,1.37-1.95,3.22-3.12,5.57-3.52.52-.06,1.01-.13,1.46-.2,1.76,0,3.38.59,4.88,1.76,1.89,1.43,3.03,3.29,3.42,5.57.06.52.13,1.04.2,1.56,0,1.76-.55,3.35-1.66,4.79-1.37,1.89-3.22,3.03-5.57,3.42-.52.07-1.04.1-1.56.1-1.76,0-3.35-.52-4.79-1.56-1.89-1.37-3.03-3.22-3.42-5.57Z"/>
      <path class="cls-20" d="M23.39,14.61c-1.66-1.66-2.49-3.66-2.49-6.01s.83-4.36,2.49-6.05C25.05.86,27.05.01,29.39.01s4.36.85,6.05,2.54c1.69,1.69,2.54,3.71,2.54,6.05s-.85,4.35-2.54,6.01c-1.69,1.66-3.71,2.49-6.05,2.49s-4.35-.83-6.01-2.49Z"/>
      <path class="cls-20" d="M23.39,35.12c-1.66-1.66-2.49-3.66-2.49-6.01s.83-4.36,2.49-6.05c1.66-1.69,3.66-2.54,6.01-2.54s4.36.85,6.05,2.54c1.69,1.69,2.54,3.71,2.54,6.05s-.85,4.35-2.54,6.01c-1.69,1.66-3.71,2.49-6.05,2.49s-4.35-.83-6.01-2.49Z"/>
      <path class="cls-13" d="M23.39,55.58c-1.66-1.69-2.49-3.71-2.49-6.05s.83-4.35,2.49-6.01,3.66-2.49,6.01-2.49,4.36.83,6.05,2.49c1.69,1.66,2.54,3.66,2.54,6.01s-.85,4.36-2.54,6.05-3.71,2.54-6.05,2.54-4.35-.85-6.01-2.54Z"/>
      <path class="cls-2" d="M23.39,76.04c-1.66-1.66-2.49-3.66-2.49-6.01s.83-4.35,2.49-6.01,3.66-2.49,6.01-2.49,4.36.83,6.05,2.49c1.69,1.66,2.54,3.66,2.54,6.01s-.85,4.35-2.54,6.01c-1.69,1.66-3.71,2.49-6.05,2.49s-4.35-.83-6.01-2.49Z"/>
      <path class="cls-6" d="M23.39,96.55c-1.66-1.66-2.49-3.66-2.49-6.01s.83-4.35,2.49-6.01,3.66-2.49,6.01-2.49,4.36.83,6.05,2.49c1.69,1.66,2.54,3.66,2.54,6.01s-.85,4.35-2.54,6.01c-1.69,1.66-3.71,2.49-6.05,2.49s-4.35-.83-6.01-2.49Z"/>
      <path class="cls-30" d="M23.39,117.05c-1.66-1.66-2.49-3.66-2.49-6.01s.83-4.35,2.49-6.01,3.66-2.49,6.01-2.49,4.36.83,6.05,2.49c1.69,1.66,2.54,3.66,2.54,6.01s-.85,4.35-2.54,6.01c-1.69,1.66-3.71,2.49-6.05,2.49s-4.35-.83-6.01-2.49Z"/>
      <path class="cls-2" d="M23.39,137.56c-1.66-1.66-2.49-3.66-2.49-6.01s.83-4.36,2.49-6.05c1.66-1.69,3.66-2.54,6.01-2.54s4.36.85,6.05,2.54c1.69,1.69,2.54,3.71,2.54,6.05s-.85,4.35-2.54,6.01c-1.69,1.66-3.71,2.49-6.05,2.49s-4.35-.83-6.01-2.49Z"/>
      <path class="cls-29" d="M44.38,14.61c-1.66-1.66-2.49-3.66-2.49-6.01s.83-4.36,2.49-6.05C46.04.86,48.05.01,50.39.01s4.35.85,6.01,2.54c1.66,1.69,2.49,3.71,2.49,6.05s-.83,4.35-2.49,6.01-3.66,2.49-6.01,2.49-4.35-.83-6.01-2.49Z"/>
      <path class="cls-20" d="M44.38,137.56c-1.66-1.66-2.49-3.66-2.49-6.01s.83-4.36,2.49-6.05c1.66-1.69,3.66-2.54,6.01-2.54s4.35.85,6.01,2.54c1.66,1.69,2.49,3.71,2.49,6.05s-.83,4.35-2.49,6.01-3.66,2.49-6.01,2.49-4.35-.83-6.01-2.49Z"/>
      <path class="cls-27" d="M89.36,14.61c-1.69-1.66-2.54-3.66-2.54-6.01s.85-4.36,2.54-6.05S93.07.01,95.41.01s4.35.85,6.01,2.54c1.66,1.69,2.49,3.71,2.49,6.05s-.83,4.35-2.49,6.01-3.66,2.49-6.01,2.49-4.36-.83-6.05-2.49Z"/>
      <path class="cls-16" d="M89.36,35.12c-1.69-1.66-2.54-3.66-2.54-6.01s.85-4.36,2.54-6.05,3.71-2.54,6.05-2.54,4.35.85,6.01,2.54c1.66,1.69,2.49,3.71,2.49,6.05s-.83,4.35-2.49,6.01-3.66,2.49-6.01,2.49-4.36-.83-6.05-2.49Z"/>
      <path class="cls-31" d="M89.36,55.58c-1.69-1.69-2.54-3.71-2.54-6.05s.85-4.35,2.54-6.01c1.69-1.66,3.71-2.49,6.05-2.49s4.35.83,6.01,2.49,2.49,3.66,2.49,6.01-.83,4.36-2.49,6.05c-1.66,1.69-3.66,2.54-6.01,2.54s-4.36-.85-6.05-2.54Z"/>
      <path class="cls-27" d="M89.36,76.04c-1.69-1.66-2.54-3.66-2.54-6.01s.85-4.35,2.54-6.01c1.69-1.66,3.71-2.49,6.05-2.49s4.35.83,6.01,2.49,2.49,3.66,2.49,6.01-.83,4.35-2.49,6.01-3.66,2.49-6.01,2.49-4.36-.83-6.05-2.49Z"/>
      <path class="cls-24" d="M89.36,96.55c-1.69-1.66-2.54-3.66-2.54-6.01s.85-4.35,2.54-6.01c1.69-1.66,3.71-2.49,6.05-2.49s4.35.83,6.01,2.49,2.49,3.66,2.49,6.01-.83,4.35-2.49,6.01-3.66,2.49-6.01,2.49-4.36-.83-6.05-2.49Z"/>
      <path class="cls-32" d="M89.36,117.05c-1.69-1.66-2.54-3.66-2.54-6.01s.85-4.35,2.54-6.01c1.69-1.66,3.71-2.49,6.05-2.49s4.35.83,6.01,2.49,2.49,3.66,2.49,6.01-.83,4.35-2.49,6.01-3.66,2.49-6.01,2.49-4.36-.83-6.05-2.49Z"/>
      <path class="cls-22" d="M89.36,137.56c-1.69-1.66-2.54-3.66-2.54-6.01s.85-4.36,2.54-6.05,3.71-2.54,6.05-2.54,4.35.85,6.01,2.54c1.66,1.69,2.49,3.71,2.49,6.05s-.83,4.35-2.49,6.01-3.66,2.49-6.01,2.49-4.36-.83-6.05-2.49Z"/>
      <path class="cls-30" d="M110.3,14.61c-1.66-1.66-2.49-3.66-2.49-6.01s.83-4.36,2.49-6.05C111.96.86,113.96.01,116.31.01s4.36.85,6.05,2.54c1.69,1.69,2.54,3.71,2.54,6.05s-.85,4.35-2.54,6.01c-1.69,1.66-3.71,2.49-6.05,2.49s-4.35-.83-6.01-2.49Z"/>
      <path class="cls-28" d="M110.3,137.56c-1.66-1.66-2.49-3.66-2.49-6.01s.83-4.36,2.49-6.05c1.66-1.69,3.66-2.54,6.01-2.54s4.36.85,6.05,2.54c1.69,1.69,2.54,3.71,2.54,6.05s-.85,4.35-2.54,6.01c-1.69,1.66-3.71,2.49-6.05,2.49s-4.35-.83-6.01-2.49Z"/>
      <path class="cls-24" d="M128.91,9.97c-.07-.52-.1-1.04-.1-1.56,0-1.82.52-3.45,1.56-4.88,1.37-1.95,3.22-3.09,5.57-3.42.52-.06,1.01-.1,1.46-.1,1.76,0,3.38.52,4.88,1.56,1.89,1.43,3.03,3.32,3.42,5.66.06.52.13,1.04.2,1.56,0,1.76-.55,3.35-1.66,4.79-1.37,1.89-3.22,3.03-5.57,3.42-.52.07-1.04.1-1.56.1-1.76,0-3.35-.52-4.79-1.56-1.89-1.37-3.03-3.22-3.42-5.57Z"/>
      <path class="cls-32" d="M128.91,132.92c-.07-.52-.1-1.04-.1-1.56,0-1.76.52-3.35,1.56-4.79,1.37-1.89,3.22-3.03,5.57-3.42.52-.06,1.04-.1,1.56-.1,1.76,0,3.35.52,4.79,1.56,1.89,1.37,3.03,3.22,3.42,5.57.06.52.13,1.04.2,1.56,0,1.76-.55,3.35-1.66,4.79-1.37,1.89-3.22,3.03-5.57,3.42-.52.07-1.04.1-1.56.1-1.76,0-3.35-.52-4.79-1.56-1.89-1.37-3.03-3.22-3.42-5.57Z"/>
      <path class="cls-9" d="M152.29,14.61c-1.66-1.66-2.49-3.66-2.49-6.01s.83-4.36,2.49-6.05c1.66-1.69,3.66-2.54,6.01-2.54s4.35.85,6.01,2.54c1.66,1.69,2.49,3.71,2.49,6.05s-.83,4.35-2.49,6.01-3.66,2.49-6.01,2.49-4.35-.83-6.01-2.49Z"/>
      <path class="cls-1" d="M152.29,137.56c-1.66-1.66-2.49-3.66-2.49-6.01s.83-4.36,2.49-6.05c1.66-1.69,3.66-2.54,6.01-2.54s4.35.85,6.01,2.54c1.66,1.69,2.49,3.71,2.49,6.05s-.83,4.35-2.49,6.01-3.66,2.49-6.01,2.49-4.35-.83-6.01-2.49Z"/>
      <path class="cls-18" d="M173.24,35.12c-1.69-1.66-2.54-3.66-2.54-6.01s.85-4.36,2.54-6.05,3.71-2.54,6.05-2.54,4.35.85,6.01,2.54c1.66,1.69,2.49,3.71,2.49,6.05s-.83,4.35-2.49,6.01-3.66,2.49-6.01,2.49-4.36-.83-6.05-2.49Z"/>
      <path class="cls-19" d="M173.24,55.58c-1.69-1.69-2.54-3.71-2.54-6.05s.85-4.35,2.54-6.01c1.69-1.66,3.71-2.49,6.05-2.49s4.35.83,6.01,2.49,2.49,3.66,2.49,6.01-.83,4.36-2.49,6.05c-1.66,1.69-3.66,2.54-6.01,2.54s-4.36-.85-6.05-2.54Z"/>
      <path class="cls-16" d="M173.24,76.04c-1.69-1.66-2.54-3.66-2.54-6.01s.85-4.35,2.54-6.01c1.69-1.66,3.71-2.49,6.05-2.49s4.35.83,6.01,2.49,2.49,3.66,2.49,6.01-.83,4.35-2.49,6.01-3.66,2.49-6.01,2.49-4.36-.83-6.05-2.49Z"/>
      <path class="cls-2" d="M173.24,96.55c-1.69-1.66-2.54-3.66-2.54-6.01s.85-4.35,2.54-6.01c1.69-1.66,3.71-2.49,6.05-2.49s4.35.83,6.01,2.49,2.49,3.66,2.49,6.01-.83,4.35-2.49,6.01-3.66,2.49-6.01,2.49-4.36-.83-6.05-2.49Z"/>
      <path class="cls-29" d="M173.24,117.05c-1.69-1.66-2.54-3.66-2.54-6.01s.85-4.35,2.54-6.01c1.69-1.66,3.71-2.49,6.05-2.49s4.35.83,6.01,2.49,2.49,3.66,2.49,6.01-.83,4.35-2.49,6.01-3.66,2.49-6.01,2.49-4.36-.83-6.05-2.49Z"/>
      <path class="cls-21" d="M218.26,14.61c-1.69-1.66-2.54-3.66-2.54-6.01s.85-4.36,2.54-6.05S221.97.01,224.32.01s4.35.85,6.01,2.54c1.66,1.69,2.49,3.71,2.49,6.05s-.83,4.35-2.49,6.01-3.66,2.49-6.01,2.49-4.36-.83-6.05-2.49Z"/>
      <path class="cls-1" d="M218.26,35.12c-1.69-1.66-2.54-3.66-2.54-6.01s.85-4.36,2.54-6.05,3.71-2.54,6.05-2.54,4.35.85,6.01,2.54c1.66,1.69,2.49,3.71,2.49,6.05s-.83,4.35-2.49,6.01-3.66,2.49-6.01,2.49-4.36-.83-6.05-2.49Z"/>
      <path class="cls-24" d="M218.26,55.58c-1.69-1.69-2.54-3.71-2.54-6.05s.85-4.35,2.54-6.01c1.69-1.66,3.71-2.49,6.05-2.49s4.35.83,6.01,2.49,2.49,3.66,2.49,6.01-.83,4.36-2.49,6.05c-1.66,1.69-3.66,2.54-6.01,2.54s-4.36-.85-6.05-2.54Z"/>
      <path class="cls-24" d="M218.26,76.04c-1.69-1.66-2.54-3.66-2.54-6.01s.85-4.35,2.54-6.01c1.69-1.66,3.71-2.49,6.05-2.49s4.35.83,6.01,2.49,2.49,3.66,2.49,6.01-.83,4.35-2.49,6.01-3.66,2.49-6.01,2.49-4.36-.83-6.05-2.49Z"/>
      <path class="cls-32" d="M218.26,96.55c-1.69-1.66-2.54-3.66-2.54-6.01s.85-4.35,2.54-6.01c1.69-1.66,3.71-2.49,6.05-2.49s4.35.83,6.01,2.49,2.49,3.66,2.49,6.01-.83,4.35-2.49,6.01-3.66,2.49-6.01,2.49-4.36-.83-6.05-2.49Z"/>
      <path class="cls-19" d="M218.26,117.05c-1.69-1.66-2.54-3.66-2.54-6.01s.85-4.35,2.54-6.01c1.69-1.66,3.71-2.49,6.05-2.49s4.35.83,6.01,2.49,2.49,3.66,2.49,6.01-.83,4.35-2.49,6.01-3.66,2.49-6.01,2.49-4.36-.83-6.05-2.49Z"/>
      <path class="cls-17" d="M218.26,137.56c-1.69-1.66-2.54-3.66-2.54-6.01s.85-4.36,2.54-6.05,3.71-2.54,6.05-2.54,4.35.85,6.01,2.54c1.66,1.69,2.49,3.71,2.49,6.05s-.83,4.35-2.49,6.01-3.66,2.49-6.01,2.49-4.36-.83-6.05-2.49Z"/>
      <path class="cls-23" d="M236.82,9.97c-.07-.52-.1-1.04-.1-1.56,0-1.82.52-3.45,1.56-4.88,1.37-1.95,3.22-3.09,5.57-3.42.52-.06,1.01-.1,1.46-.1,1.69,0,3.32.52,4.88,1.56,1.95,1.43,3.12,3.32,3.52,5.66.06.52.13,1.01.2,1.46,0,1.76-.59,3.39-1.76,4.88-1.43,1.89-3.29,3.03-5.57,3.42-.52.07-1.04.1-1.56.1-1.76,0-3.35-.52-4.79-1.56-1.89-1.37-3.03-3.22-3.42-5.57Z"/>
      <path class="cls-29" d="M236.82,71.4c-.07-.52-.1-1.04-.1-1.56,0-1.76.52-3.35,1.56-4.79,1.37-1.89,3.22-3.03,5.57-3.42.52-.06,1.04-.1,1.56-.1,1.76,0,3.35.52,4.79,1.56,1.95,1.37,3.12,3.22,3.52,5.57.06.52.13,1.01.2,1.46,0,1.76-.59,3.39-1.76,4.88-1.43,1.89-3.29,3.03-5.57,3.42-.52.07-1.04.1-1.56.1-1.76,0-3.35-.52-4.79-1.56-1.89-1.37-3.03-3.22-3.42-5.57Z"/>
      <path class="cls-17" d="M236.82,132.92c-.07-.52-.1-1.04-.1-1.56,0-1.76.52-3.35,1.56-4.79,1.37-1.95,3.22-3.12,5.57-3.52.52-.06,1.01-.1,1.46-.1,1.69.07,3.32.62,4.88,1.66,1.95,1.43,3.12,3.29,3.52,5.57.06.52.13,1.01.2,1.46,0,1.76-.59,3.39-1.76,4.88-1.43,1.89-3.29,3.03-5.57,3.42-.52.07-1.04.1-1.56.1-1.76,0-3.35-.52-4.79-1.56-1.89-1.37-3.03-3.22-3.42-5.57Z"/>
      <path class="cls-19" d="M260.21,14.61c-1.66-1.66-2.49-3.66-2.49-6.01s.83-4.36,2.49-6.05c1.66-1.69,3.66-2.54,6.01-2.54s4.35.85,6.01,2.54c1.66,1.69,2.49,3.71,2.49,6.05s-.83,4.35-2.49,6.01-3.66,2.49-6.01,2.49-4.35-.83-6.01-2.49Z"/>
      <path class="cls-30" d="M260.21,76.04c-1.66-1.66-2.49-3.66-2.49-6.01s.83-4.35,2.49-6.01,3.66-2.49,6.01-2.49,4.35.83,6.01,2.49,2.49,3.66,2.49,6.01-.83,4.35-2.49,6.01-3.66,2.49-6.01,2.49-4.35-.83-6.01-2.49Z"/>
      <path class="cls-15" d="M260.21,137.56c-1.66-1.66-2.49-3.66-2.49-6.01s.83-4.36,2.49-6.05c1.66-1.69,3.66-2.54,6.01-2.54s4.35.85,6.01,2.54c1.66,1.69,2.49,3.71,2.49,6.05s-.83,4.35-2.49,6.01-3.66,2.49-6.01,2.49-4.35-.83-6.01-2.49Z"/>
      <path class="cls-18" d="M281.2,14.61c-1.66-1.66-2.49-3.66-2.49-6.01s.83-4.36,2.49-6.05c1.66-1.69,3.66-2.54,6.01-2.54s4.35.85,6.01,2.54c1.66,1.69,2.49,3.71,2.49,6.05s-.83,4.35-2.49,6.01-3.66,2.49-6.01,2.49-4.35-.83-6.01-2.49Z"/>
      <path class="cls-5" d="M281.2,76.04c-1.66-1.66-2.49-3.66-2.49-6.01s.83-4.35,2.49-6.01,3.66-2.49,6.01-2.49,4.35.83,6.01,2.49,2.49,3.66,2.49,6.01-.83,4.35-2.49,6.01-3.66,2.49-6.01,2.49-4.35-.83-6.01-2.49Z"/>
      <path class="cls-17" d="M281.2,137.56c-1.66-1.66-2.49-3.66-2.49-6.01s.83-4.36,2.49-6.05c1.66-1.69,3.66-2.54,6.01-2.54s4.35.85,6.01,2.54c1.66,1.69,2.49,3.71,2.49,6.05s-.83,4.35-2.49,6.01-3.66,2.49-6.01,2.49-4.35-.83-6.01-2.49Z"/>
      <path class="cls-10" d="M300.2,11.93c-.46-1.04-.65-2.15-.59-3.32,0-1.11.23-2.21.68-3.32.85-2.21,2.38-3.77,4.59-4.69,1.04-.45,2.11-.65,3.22-.59,1.11,0,2.21.23,3.32.68,2.15.85,3.68,2.38,4.59,4.59.45,1.04.68,2.12.68,3.22s-.23,2.21-.68,3.32c-.78,2.15-2.28,3.68-4.49,4.59-1.04.46-2.15.68-3.32.68-1.11,0-2.21-.23-3.32-.68-2.21-.78-3.78-2.28-4.69-4.49Z"/>
      <path class="cls-19" d="M299.8,132.92c-.07-.52-.1-1.04-.1-1.56,0-1.76.52-3.35,1.56-4.79,1.37-1.95,3.22-3.12,5.57-3.52.52-.06,1.01-.1,1.46-.1,1.76.07,3.38.62,4.88,1.66,1.89,1.43,3.03,3.29,3.42,5.57.06.52.13,1.04.2,1.56,0,1.76-.55,3.35-1.66,4.79-1.37,1.89-3.22,3.03-5.57,3.42-.52.07-1.04.1-1.56.1-1.76,0-3.35-.52-4.79-1.56-1.89-1.37-3.03-3.22-3.42-5.57Z"/>
      <path class="cls-2" d="M345.31,32.43c-.46-1.04-.68-2.15-.68-3.32,0-1.11.23-2.21.68-3.32.78-2.21,2.28-3.77,4.49-4.69,1.04-.45,2.15-.65,3.32-.59,1.11,0,2.21.23,3.32.68,2.21.85,3.77,2.38,4.69,4.59.45,1.04.65,2.12.59,3.22,0,1.11-.23,2.21-.68,3.32-.85,2.15-2.38,3.68-4.59,4.59-1.04.46-2.12.68-3.22.68s-2.21-.23-3.32-.68c-2.15-.78-3.68-2.28-4.59-4.49Z"/>
      <path class="cls-31" d="M345.31,52.94c-.46-1.04-.68-2.15-.68-3.32,0-1.11.23-2.21.68-3.32.78-2.21,2.28-3.77,4.49-4.69,1.04-.45,2.15-.65,3.32-.59,1.11,0,2.21.23,3.32.68,2.21.85,3.77,2.38,4.69,4.59.45,1.04.65,2.12.59,3.22,0,1.11-.23,2.21-.68,3.32-.85,2.15-2.38,3.68-4.59,4.59-1.04.46-2.12.68-3.22.68s-2.21-.23-3.32-.68c-2.15-.78-3.68-2.28-4.59-4.49Z"/>
      <path class="cls-9" d="M345.31,73.45c-.46-1.04-.68-2.15-.68-3.32,0-1.11.23-2.21.68-3.32.78-2.21,2.28-3.77,4.49-4.69,1.04-.45,2.15-.65,3.32-.59,1.11,0,2.21.23,3.32.68,2.21.85,3.77,2.38,4.69,4.59.45,1.04.65,2.12.59,3.22,0,1.11-.23,2.21-.68,3.32-.85,2.15-2.38,3.68-4.59,4.59-1.04.46-2.12.68-3.22.68s-2.21-.23-3.32-.68c-2.15-.78-3.68-2.28-4.59-4.49Z"/>
      <path class="cls-19" d="M345.31,93.96c-.46-1.04-.68-2.15-.68-3.32,0-1.11.23-2.21.68-3.32.78-2.21,2.28-3.77,4.49-4.69,1.11-.45,2.21-.68,3.32-.68s2.21.23,3.32.68c2.21.78,3.77,2.28,4.69,4.49.45,1.04.65,2.15.59,3.32,0,1.11-.23,2.21-.68,3.32-.85,2.21-2.38,3.78-4.59,4.69-1.11.46-2.2.68-3.27.68s-2.17-.23-3.27-.68c-2.15-.78-3.68-2.28-4.59-4.49Z"/>
      <path class="cls-25" d="M345.31,114.46c-.46-1.04-.68-2.15-.68-3.32,0-1.11.23-2.21.68-3.32.78-2.21,2.28-3.77,4.49-4.69,1.11-.45,2.21-.68,3.32-.68s2.21.23,3.32.68c2.21.78,3.77,2.28,4.69,4.49.45,1.04.65,2.15.59,3.32,0,1.11-.23,2.21-.68,3.32-.85,2.21-2.38,3.78-4.59,4.69-1.11.46-2.2.68-3.27.68s-2.17-.23-3.27-.68c-2.15-.78-3.68-2.28-4.59-4.49Z"/>
      <path class="cls-30" d="M345.31,134.78c-.46-1.04-.68-2.11-.68-3.22s.23-2.21.68-3.32c.78-2.15,2.28-3.68,4.49-4.59,1.04-.45,2.15-.68,3.32-.68,1.11,0,2.21.23,3.32.68,2.21.78,3.77,2.28,4.69,4.49.45,1.04.65,2.15.59,3.32,0,1.11-.23,2.21-.68,3.32-.85,2.21-2.38,3.78-4.59,4.69-1.04.46-2.12.65-3.22.59-1.11,0-2.21-.23-3.32-.68-2.15-.85-3.68-2.38-4.59-4.59Z"/>
      <path class="cls-4" d="M368.12,14.61c-1.66-1.66-2.49-3.66-2.49-6.01s.83-4.36,2.49-6.05c1.66-1.69,3.66-2.54,6.01-2.54s4.36.85,6.05,2.54c1.69,1.69,2.54,3.71,2.54,6.05s-.85,4.35-2.54,6.01c-1.69,1.66-3.71,2.49-6.05,2.49s-4.35-.83-6.01-2.49Z"/>
      <path class="cls-28" d="M368.12,76.04c-1.66-1.66-2.49-3.66-2.49-6.01s.83-4.35,2.49-6.01,3.66-2.49,6.01-2.49,4.36.83,6.05,2.49c1.69,1.66,2.54,3.66,2.54,6.01s-.85,4.35-2.54,6.01c-1.69,1.66-3.71,2.49-6.05,2.49s-4.35-.83-6.01-2.49Z"/>
      <path class="cls-14" d="M389.11,14.61c-1.66-1.66-2.49-3.66-2.49-6.01s.83-4.36,2.49-6.05c1.66-1.69,3.66-2.54,6.01-2.54s4.35.85,6.01,2.54c1.66,1.69,2.49,3.71,2.49,6.05s-.83,4.35-2.49,6.01-3.66,2.49-6.01,2.49-4.35-.83-6.01-2.49Z"/>
      <path class="cls-5" d="M389.11,76.04c-1.66-1.66-2.49-3.66-2.49-6.01s.83-4.35,2.49-6.01,3.66-2.49,6.01-2.49,4.35.83,6.01,2.49,2.49,3.66,2.49,6.01-.83,4.35-2.49,6.01-3.66,2.49-6.01,2.49-4.35-.83-6.01-2.49Z"/>
      <path class="cls-23" d="M408.2,11.93c-.46-1.04-.68-2.15-.68-3.32,0-1.11.23-2.21.68-3.32.78-2.21,2.28-3.77,4.49-4.69,1.04-.45,2.15-.65,3.32-.59,1.11,0,2.21.23,3.32.68,2.21.85,3.77,2.38,4.69,4.59.45,1.11.68,2.2.68,3.27s-.23,2.17-.68,3.27c-.85,2.15-2.38,3.68-4.59,4.59-1.11.46-2.21.68-3.32.68l-3.32-.68c-2.15-.78-3.68-2.28-4.59-4.49Z"/>
      <path class="cls-16" d="M408.2,73.45c-.46-1.04-.68-2.15-.68-3.32,0-1.11.23-2.21.68-3.32.78-2.21,2.28-3.77,4.49-4.69,1.04-.45,2.15-.65,3.32-.59,1.11,0,2.21.23,3.32.68,2.21.85,3.77,2.38,4.69,4.59.45,1.11.68,2.2.68,3.27s-.23,2.17-.68,3.27c-.85,2.15-2.38,3.68-4.59,4.59-1.11.46-2.21.68-3.32.68l-3.32-.68c-2.15-.78-3.68-2.28-4.59-4.49Z"/>
      <path class="cls-22" d="M431.05,35.12c-1.69-1.66-2.54-3.66-2.54-6.01s.85-4.36,2.54-6.05,3.71-2.54,6.05-2.54,4.35.85,6.01,2.54c1.66,1.69,2.49,3.71,2.49,6.05s-.83,4.35-2.49,6.01-3.66,2.49-6.01,2.49-4.36-.83-6.05-2.49Z"/>
      <path class="cls-27" d="M431.05,55.58c-1.69-1.69-2.54-3.71-2.54-6.05s.85-4.35,2.54-6.01c1.69-1.66,3.71-2.49,6.05-2.49s4.35.83,6.01,2.49,2.49,3.66,2.49,6.01-.83,4.36-2.49,6.05c-1.66,1.69-3.66,2.54-6.01,2.54s-4.36-.85-6.05-2.54Z"/>
      <path class="cls-20" d="M431.05,76.04c-1.69-1.66-2.54-3.66-2.54-6.01s.85-4.35,2.54-6.01c1.69-1.66,3.71-2.49,6.05-2.49s4.35.83,6.01,2.49,2.49,3.66,2.49,6.01-.83,4.35-2.49,6.01-3.66,2.49-6.01,2.49-4.36-.83-6.05-2.49Z"/>
      <path class="cls-27" d="M431.05,96.55c-1.69-1.66-2.54-3.66-2.54-6.01s.85-4.35,2.54-6.01c1.69-1.66,3.71-2.49,6.05-2.49s4.35.83,6.01,2.49,2.49,3.66,2.49,6.01-.83,4.35-2.49,6.01-3.66,2.49-6.01,2.49-4.36-.83-6.05-2.49Z"/>
      <path class="cls-18" d="M431.05,117.05c-1.69-1.66-2.54-3.66-2.54-6.01s.85-4.35,2.54-6.01c1.69-1.66,3.71-2.49,6.05-2.49s4.35.83,6.01,2.49,2.49,3.66,2.49,6.01-.83,4.35-2.49,6.01-3.66,2.49-6.01,2.49-4.36-.83-6.05-2.49Z"/>
      <path class="cls-13" d="M431.05,137.56c-1.69-1.66-2.54-3.66-2.54-6.01s.85-4.36,2.54-6.05,3.71-2.54,6.05-2.54,4.35.85,6.01,2.54c1.66,1.69,2.49,3.71,2.49,6.05s-.83,4.35-2.49,6.01-3.66,2.49-6.01,2.49-4.36-.83-6.05-2.49Z"/>
      <g>
        <path class="cls-32" d="M563.67,72.52c-1.69-1.66-2.54-3.66-2.54-6.01s.85-4.35,2.54-6.01c1.69-1.66,3.71-2.49,6.05-2.49s4.35.83,6.01,2.49,2.49,3.66,2.49,6.01-.83,4.35-2.49,6.01-3.66,2.49-6.01,2.49-4.36-.83-6.05-2.49Z"/>
        <path class="cls-30" d="M584.13,72.52c-1.66-1.66-2.49-3.66-2.49-6.01s.83-4.35,2.49-6.01,3.66-2.49,6.01-2.49,4.36.83,6.05,2.49c1.69,1.66,2.54,3.66,2.54,6.01s-.85,4.35-2.54,6.01c-1.69,1.66-3.71,2.49-6.05,2.49s-4.35-.83-6.01-2.49Z"/>
        <path class="cls-10" d="M604.64,72.52c-1.66-1.66-2.49-3.66-2.49-6.01s.83-4.35,2.49-6.01,3.66-2.49,6.01-2.49,4.36.83,6.05,2.49c1.69,1.66,2.54,3.66,2.54,6.01s-.85,4.35-2.54,6.01c-1.69,1.66-3.71,2.49-6.05,2.49s-4.35-.83-6.01-2.49Z"/>
        <path class="cls-19" d="M625.15,72.52c-1.66-1.66-2.49-3.66-2.49-6.01s.83-4.35,2.49-6.01,3.66-2.49,6.01-2.49,4.35.83,6.01,2.49,2.49,3.66,2.49,6.01-.83,4.35-2.49,6.01-3.66,2.49-6.01,2.49-4.35-.83-6.01-2.49Z"/>
        <path class="cls-26" d="M645.65,72.52c-1.66-1.66-2.49-3.66-2.49-6.01s.83-4.35,2.49-6.01,3.66-2.49,6.01-2.49,4.35.83,6.01,2.49,2.49,3.66,2.49,6.01-.83,4.35-2.49,6.01-3.66,2.49-6.01,2.49-4.35-.83-6.01-2.49Z"/>
      </g>
      <g>
        <path class="cls-28" d="M690.62,30.58c-1.69-1.66-2.54-3.66-2.54-6.01s.85-4.35,2.54-6.01c1.69-1.66,3.71-2.49,6.05-2.49s4.35.83,6.01,2.49,2.49,3.66,2.49,6.01-.83,4.35-2.49,6.01-3.66,2.49-6.01,2.49-4.36-.83-6.05-2.49Z"/>
        <path class="cls-10" d="M690.62,114.46c-1.69-1.66-2.54-3.66-2.54-6.01s.85-4.36,2.54-6.05,3.71-2.54,6.05-2.54,4.35.85,6.01,2.54c1.66,1.69,2.49,3.71,2.49,6.05s-.83,4.35-2.49,6.01-3.66,2.49-6.01,2.49-4.36-.83-6.05-2.49Z"/>
        <path class="cls-13" d="M711.08,51.57c-1.66-1.66-2.49-3.66-2.49-6.01s.83-4.36,2.49-6.05c1.66-1.69,3.66-2.54,6.01-2.54s4.36.85,6.05,2.54c1.69,1.69,2.54,3.71,2.54,6.05s-.85,4.35-2.54,6.01c-1.69,1.66-3.71,2.49-6.05,2.49s-4.35-.83-6.01-2.49Z"/>
        <path class="cls-28" d="M711.08,93.47c-1.66-1.66-2.49-3.66-2.49-6.01s.83-4.35,2.49-6.01,3.66-2.49,6.01-2.49,4.36.83,6.05,2.49c1.69,1.66,2.54,3.66,2.54,6.01s-.85,4.35-2.54,6.01c-1.69,1.66-3.71,2.49-6.05,2.49s-4.35-.83-6.01-2.49Z"/>
        <path class="cls-7" d="M731.59,72.52c-1.66-1.69-2.49-3.71-2.49-6.05s.83-4.35,2.49-6.01,3.66-2.49,6.01-2.49,4.36.83,6.05,2.49c1.69,1.66,2.54,3.66,2.54,6.01s-.85,4.36-2.54,6.05-3.71,2.54-6.05,2.54-4.35-.85-6.01-2.54Z"/>
      </g>
      <path class="cls-7" d="M861.82,9.88c-.07-.52-.1-1.04-.1-1.56,0-1.76.52-3.35,1.56-4.79,1.37-1.89,3.22-3.03,5.57-3.42.52-.06,1.01-.1,1.46-.1,1.76,0,3.38.52,4.88,1.56,1.89,1.43,3.03,3.32,3.42,5.66.06.52.13,1.04.2,1.56,0,1.76-.55,3.35-1.66,4.79-1.37,1.89-3.22,3.03-5.57,3.42-.52.07-1.01.1-1.46.1-1.76-.06-3.39-.62-4.88-1.66-1.89-1.43-3.03-3.29-3.42-5.57Z"/>
      <path class="cls-5" d="M861.82,132.92c-.07-.52-.1-1.04-.1-1.56,0-1.76.52-3.35,1.56-4.79,1.37-1.95,3.22-3.12,5.57-3.52.52-.06,1.01-.13,1.46-.2,1.76,0,3.38.59,4.88,1.76,1.89,1.43,3.03,3.29,3.42,5.57.06.52.13,1.04.2,1.56,0,1.76-.55,3.35-1.66,4.79-1.37,1.89-3.22,3.03-5.57,3.42-.52.07-1.04.1-1.56.1-1.76,0-3.35-.52-4.79-1.56-1.89-1.37-3.03-3.22-3.42-5.57Z"/>
      <path class="cls-27" d="M885.11,14.61c-1.66-1.66-2.49-3.66-2.49-6.01s.83-4.36,2.49-6.05c1.66-1.69,3.66-2.54,6.01-2.54s4.36.85,6.05,2.54c1.69,1.69,2.54,3.71,2.54,6.05s-.85,4.35-2.54,6.01c-1.69,1.66-3.71,2.49-6.05,2.49s-4.35-.83-6.01-2.49Z"/>
      <path class="cls-24" d="M885.11,35.12c-1.66-1.66-2.49-3.66-2.49-6.01s.83-4.36,2.49-6.05c1.66-1.69,3.66-2.54,6.01-2.54s4.36.85,6.05,2.54c1.69,1.69,2.54,3.71,2.54,6.05s-.85,4.35-2.54,6.01c-1.69,1.66-3.71,2.49-6.05,2.49s-4.35-.83-6.01-2.49Z"/>
      <path class="cls-3" d="M885.11,55.58c-1.66-1.69-2.49-3.71-2.49-6.05s.83-4.35,2.49-6.01,3.66-2.49,6.01-2.49,4.36.83,6.05,2.49c1.69,1.66,2.54,3.66,2.54,6.01s-.85,4.36-2.54,6.05c-1.69,1.69-3.71,2.54-6.05,2.54s-4.35-.85-6.01-2.54Z"/>
      <path class="cls-11" d="M885.11,76.04c-1.66-1.66-2.49-3.66-2.49-6.01s.83-4.35,2.49-6.01,3.66-2.49,6.01-2.49,4.36.83,6.05,2.49c1.69,1.66,2.54,3.66,2.54,6.01s-.85,4.35-2.54,6.01c-1.69,1.66-3.71,2.49-6.05,2.49s-4.35-.83-6.01-2.49Z"/>
      <path class="cls-16" d="M885.11,96.55c-1.66-1.66-2.49-3.66-2.49-6.01s.83-4.35,2.49-6.01,3.66-2.49,6.01-2.49,4.36.83,6.05,2.49c1.69,1.66,2.54,3.66,2.54,6.01s-.85,4.35-2.54,6.01c-1.69,1.66-3.71,2.49-6.05,2.49s-4.35-.83-6.01-2.49Z"/>
      <path class="cls-7" d="M885.11,117.05c-1.66-1.66-2.49-3.66-2.49-6.01s.83-4.35,2.49-6.01,3.66-2.49,6.01-2.49,4.36.83,6.05,2.49c1.69,1.66,2.54,3.66,2.54,6.01s-.85,4.35-2.54,6.01c-1.69,1.66-3.71,2.49-6.05,2.49s-4.35-.83-6.01-2.49Z"/>
      <path class="cls-8" d="M885.11,137.56c-1.66-1.66-2.49-3.66-2.49-6.01s.83-4.36,2.49-6.05c1.66-1.69,3.66-2.54,6.01-2.54s4.36.85,6.05,2.54c1.69,1.69,2.54,3.71,2.54,6.05s-.85,4.35-2.54,6.01c-1.69,1.66-3.71,2.49-6.05,2.49s-4.35-.83-6.01-2.49Z"/>
      <path class="cls-28" d="M906.1,14.61c-1.66-1.66-2.49-3.66-2.49-6.01s.83-4.36,2.49-6.05c1.66-1.69,3.66-2.54,6.01-2.54s4.35.85,6.01,2.54c1.66,1.69,2.49,3.71,2.49,6.05s-.83,4.35-2.49,6.01-3.66,2.49-6.01,2.49-4.35-.83-6.01-2.49Z"/>
      <path class="cls-8" d="M906.1,137.56c-1.66-1.66-2.49-3.66-2.49-6.01s.83-4.36,2.49-6.05c1.66-1.69,3.66-2.54,6.01-2.54s4.35.85,6.01,2.54c1.66,1.69,2.49,3.71,2.49,6.05s-.83,4.35-2.49,6.01-3.66,2.49-6.01,2.49-4.35-.83-6.01-2.49Z"/>
      <path class="cls-19" d="M951.07,14.61c-1.69-1.66-2.54-3.66-2.54-6.01s.85-4.36,2.54-6.05c1.69-1.69,3.71-2.54,6.05-2.54s4.35.85,6.01,2.54c1.66,1.69,2.49,3.71,2.49,6.05s-.83,4.35-2.49,6.01-3.66,2.49-6.01,2.49-4.36-.83-6.05-2.49Z"/>
      <path class="cls-30" d="M951.07,35.12c-1.69-1.66-2.54-3.66-2.54-6.01s.85-4.36,2.54-6.05c1.69-1.69,3.71-2.54,6.05-2.54s4.35.85,6.01,2.54c1.66,1.69,2.49,3.71,2.49,6.05s-.83,4.35-2.49,6.01-3.66,2.49-6.01,2.49-4.36-.83-6.05-2.49Z"/>
      <path class="cls-29" d="M951.07,55.58c-1.69-1.69-2.54-3.71-2.54-6.05s.85-4.35,2.54-6.01c1.69-1.66,3.71-2.49,6.05-2.49s4.35.83,6.01,2.49,2.49,3.66,2.49,6.01-.83,4.36-2.49,6.05c-1.66,1.69-3.66,2.54-6.01,2.54s-4.36-.85-6.05-2.54Z"/>
      <path class="cls-22" d="M951.07,76.04c-1.69-1.66-2.54-3.66-2.54-6.01s.85-4.35,2.54-6.01c1.69-1.66,3.71-2.49,6.05-2.49s4.35.83,6.01,2.49,2.49,3.66,2.49,6.01-.83,4.35-2.49,6.01-3.66,2.49-6.01,2.49-4.36-.83-6.05-2.49Z"/>
      <path class="cls-15" d="M951.07,96.55c-1.69-1.66-2.54-3.66-2.54-6.01s.85-4.35,2.54-6.01c1.69-1.66,3.71-2.49,6.05-2.49s4.35.83,6.01,2.49,2.49,3.66,2.49,6.01-.83,4.35-2.49,6.01-3.66,2.49-6.01,2.49-4.36-.83-6.05-2.49Z"/>
      <path class="cls-21" d="M951.07,117.05c-1.69-1.66-2.54-3.66-2.54-6.01s.85-4.35,2.54-6.01c1.69-1.66,3.71-2.49,6.05-2.49s4.35.83,6.01,2.49,2.49,3.66,2.49,6.01-.83,4.35-2.49,6.01-3.66,2.49-6.01,2.49-4.36-.83-6.05-2.49Z"/>
      <path class="cls-31" d="M951.07,137.56c-1.69-1.66-2.54-3.66-2.54-6.01s.85-4.36,2.54-6.05c1.69-1.69,3.71-2.54,6.05-2.54s4.35.85,6.01,2.54c1.66,1.69,2.49,3.71,2.49,6.05s-.83,4.35-2.49,6.01-3.66,2.49-6.01,2.49-4.36-.83-6.05-2.49Z"/>
      <path class="cls-16" d="M972.02,35.12c-1.66-1.66-2.49-3.66-2.49-6.01s.83-4.36,2.49-6.05c1.66-1.69,3.66-2.54,6.01-2.54s4.36.85,6.05,2.54c1.69,1.69,2.54,3.71,2.54,6.05s-.85,4.35-2.54,6.01c-1.69,1.66-3.71,2.49-6.05,2.49s-4.35-.83-6.01-2.49Z"/>
      <path class="cls-12" d="M993.02,55.58c-1.66-1.69-2.49-3.71-2.49-6.05s.83-4.35,2.49-6.01,3.66-2.49,6.01-2.49,4.35.83,6.01,2.49,2.49,3.66,2.49,6.01-.83,4.36-2.49,6.05c-1.66,1.69-3.66,2.54-6.01,2.54s-4.35-.85-6.01-2.54Z"/>
      <path class="cls-3" d="M1014.01,76.04c-1.66-1.66-2.49-3.66-2.49-6.01s.83-4.35,2.49-6.01,3.66-2.49,6.01-2.49,4.35.83,6.01,2.49,2.49,3.66,2.49,6.01-.83,4.35-2.49,6.01-3.66,2.49-6.01,2.49-4.35-.83-6.01-2.49Z"/>
      <path class="cls-24" d="M1034.96,14.61c-1.69-1.66-2.54-3.66-2.54-6.01s.85-4.36,2.54-6.05c1.69-1.69,3.71-2.54,6.05-2.54s4.35.85,6.01,2.54c1.66,1.69,2.49,3.71,2.49,6.05s-.83,4.35-2.49,6.01-3.66,2.49-6.01,2.49-4.36-.83-6.05-2.49Z"/>
      <path class="cls-12" d="M1034.96,35.12c-1.69-1.66-2.54-3.66-2.54-6.01s.85-4.36,2.54-6.05c1.69-1.69,3.71-2.54,6.05-2.54s4.35.85,6.01,2.54c1.66,1.69,2.49,3.71,2.49,6.05s-.83,4.35-2.49,6.01-3.66,2.49-6.01,2.49-4.36-.83-6.05-2.49Z"/>
      <path class="cls-21" d="M1034.96,55.58c-1.69-1.69-2.54-3.71-2.54-6.05s.85-4.35,2.54-6.01c1.69-1.66,3.71-2.49,6.05-2.49s4.35.83,6.01,2.49,2.49,3.66,2.49,6.01-.83,4.36-2.49,6.05c-1.66,1.69-3.66,2.54-6.01,2.54s-4.36-.85-6.05-2.54Z"/>
      <path class="cls-3" d="M1034.96,76.04c-1.69-1.66-2.54-3.66-2.54-6.01s.85-4.35,2.54-6.01c1.69-1.66,3.71-2.49,6.05-2.49s4.35.83,6.01,2.49,2.49,3.66,2.49,6.01-.83,4.35-2.49,6.01-3.66,2.49-6.01,2.49-4.36-.83-6.05-2.49Z"/>
      <path class="cls-19" d="M1034.96,96.55c-1.69-1.66-2.54-3.66-2.54-6.01s.85-4.35,2.54-6.01c1.69-1.66,3.71-2.49,6.05-2.49s4.35.83,6.01,2.49,2.49,3.66,2.49,6.01-.83,4.35-2.49,6.01-3.66,2.49-6.01,2.49-4.36-.83-6.05-2.49Z"/>
      <path class="cls-16" d="M1034.96,117.05c-1.69-1.66-2.54-3.66-2.54-6.01s.85-4.35,2.54-6.01c1.69-1.66,3.71-2.49,6.05-2.49s4.35.83,6.01,2.49,2.49,3.66,2.49,6.01-.83,4.35-2.49,6.01-3.66,2.49-6.01,2.49-4.36-.83-6.05-2.49Z"/>
      <path class="cls-32" d="M1034.96,137.56c-1.69-1.66-2.54-3.66-2.54-6.01s.85-4.36,2.54-6.05c1.69-1.69,3.71-2.54,6.05-2.54s4.35.85,6.01,2.54c1.66,1.69,2.49,3.71,2.49,6.05s-.83,4.35-2.49,6.01-3.66,2.49-6.01,2.49-4.36-.83-6.05-2.49Z"/>
      <path class="cls-5" d="M1077.64,30.38c-.07-.52-.1-1.04-.1-1.56,0-1.76.52-3.35,1.56-4.79,1.37-1.89,3.22-3.03,5.57-3.42.52-.06,1.01-.13,1.46-.2,1.76-.06,3.38.49,4.88,1.66,1.89,1.43,3.03,3.32,3.42,5.66.06.52.13,1.04.2,1.56,0,1.76-.55,3.35-1.66,4.79-1.37,1.89-3.22,3.03-5.57,3.42-.52.07-1.01.1-1.46.1-1.76-.06-3.39-.62-4.88-1.66-1.89-1.43-3.03-3.29-3.42-5.57Z"/>
      <path class="cls-28" d="M1077.64,50.89c-.07-.52-.1-1.04-.1-1.56,0-1.76.52-3.35,1.56-4.79,1.37-1.89,3.22-3.03,5.57-3.42.52-.06,1.04-.13,1.56-.2,1.76,0,3.35.55,4.79,1.66,1.89,1.37,3.03,3.22,3.42,5.57.06.52.13,1.04.2,1.56,0,1.76-.55,3.35-1.66,4.79-1.37,1.89-3.22,3.03-5.57,3.42-.52.07-1.04.1-1.56.1-1.76,0-3.35-.52-4.79-1.56-1.89-1.37-3.03-3.22-3.42-5.57Z"/>
      <path class="cls-16" d="M1077.64,71.4c-.07-.52-.1-1.04-.1-1.56,0-1.76.52-3.35,1.56-4.79,1.37-1.89,3.22-3.03,5.57-3.42.52-.06,1.04-.13,1.56-.2,1.76,0,3.35.55,4.79,1.66,1.89,1.37,3.03,3.22,3.42,5.57.06.52.13,1.04.2,1.56,0,1.76-.55,3.35-1.66,4.79-1.37,1.89-3.22,3.03-5.57,3.42-.52.07-1.04.1-1.56.1-1.76,0-3.35-.52-4.79-1.56-1.89-1.37-3.03-3.22-3.42-5.57Z"/>
      <path class="cls-9" d="M1077.64,91.91c-.07-.52-.1-1.04-.1-1.56,0-1.76.52-3.35,1.56-4.79,1.37-1.89,3.22-3.03,5.57-3.42.52-.06,1.04-.13,1.56-.2,1.76,0,3.35.55,4.79,1.66,1.89,1.37,3.03,3.22,3.42,5.57.06.52.13,1.04.2,1.56,0,1.76-.55,3.35-1.66,4.79-1.37,1.89-3.22,3.03-5.57,3.42-.52.07-1.04.1-1.56.1-1.76,0-3.35-.52-4.79-1.56-1.89-1.37-3.03-3.22-3.42-5.57Z"/>
      <path class="cls-29" d="M1077.64,112.41c-.07-.52-.1-1.04-.1-1.56,0-1.76.52-3.35,1.56-4.79,1.37-1.89,3.22-3.03,5.57-3.42.52-.06,1.04-.13,1.56-.2,1.76,0,3.35.55,4.79,1.66,1.89,1.37,3.03,3.22,3.42,5.57.06.52.13,1.04.2,1.56,0,1.76-.55,3.35-1.66,4.79-1.37,1.89-3.22,3.03-5.57,3.42-.52.07-1.04.1-1.56.1-1.76,0-3.35-.52-4.79-1.56-1.89-1.37-3.03-3.22-3.42-5.57Z"/>
      <path class="cls-11" d="M1100.93,14.61c-1.66-1.66-2.49-3.66-2.49-6.01s.83-4.36,2.49-6.05c1.66-1.69,3.66-2.54,6.01-2.54s4.36.85,6.05,2.54c1.69,1.69,2.54,3.71,2.54,6.05s-.85,4.35-2.54,6.01c-1.69,1.66-3.71,2.49-6.05,2.49s-4.35-.83-6.01-2.49Z"/>
      <path class="cls-19" d="M1100.93,137.56c-1.66-1.66-2.49-3.66-2.49-6.01s.83-4.36,2.49-6.05c1.66-1.69,3.66-2.54,6.01-2.54s4.36.85,6.05,2.54c1.69,1.69,2.54,3.71,2.54,6.05s-.85,4.35-2.54,6.01c-1.69,1.66-3.71,2.49-6.05,2.49s-4.35-.83-6.01-2.49Z"/>
      <path class="cls-18" d="M1121.92,14.61c-1.66-1.66-2.49-3.66-2.49-6.01s.83-4.36,2.49-6.05c1.66-1.69,3.66-2.54,6.01-2.54s4.35.85,6.01,2.54c1.66,1.69,2.49,3.71,2.49,6.05s-.83,4.35-2.49,6.01-3.66,2.49-6.01,2.49-4.35-.83-6.01-2.49Z"/>
      <path class="cls-27" d="M1121.92,137.56c-1.66-1.66-2.49-3.66-2.49-6.01s.83-4.36,2.49-6.05c1.66-1.69,3.66-2.54,6.01-2.54s4.35.85,6.01,2.54c1.66,1.69,2.49,3.71,2.49,6.05s-.83,4.35-2.49,6.01-3.66,2.49-6.01,2.49-4.35-.83-6.01-2.49Z"/>
      <path class="cls-24" d="M1140.53,9.97c-.07-.52-.1-1.04-.1-1.56,0-1.82.52-3.45,1.56-4.88,1.37-1.95,3.22-3.09,5.57-3.42.52-.06,1.01-.1,1.46-.1,1.76,0,3.38.52,4.88,1.56,1.89,1.43,3.03,3.32,3.42,5.66.06.52.13,1.04.2,1.56,0,1.76-.55,3.35-1.66,4.79-1.37,1.89-3.22,3.03-5.57,3.42-.52.07-1.04.1-1.56.1-1.76,0-3.35-.52-4.79-1.56-1.89-1.37-3.03-3.22-3.42-5.57Z"/>
      <path class="cls-22" d="M1140.53,132.92c-.07-.52-.1-1.04-.1-1.56,0-1.76.52-3.35,1.56-4.79,1.37-1.89,3.22-3.03,5.57-3.42.52-.06,1.04-.1,1.56-.1,1.76,0,3.35.52,4.79,1.56,1.89,1.37,3.03,3.22,3.42,5.57.06.52.13,1.04.2,1.56,0,1.76-.55,3.35-1.66,4.79-1.37,1.89-3.22,3.03-5.57,3.42-.52.07-1.04.1-1.56.1-1.76,0-3.35-.52-4.79-1.56-1.89-1.37-3.03-3.22-3.42-5.57Z"/>
      <path class="cls-17" d="M1163.87,35.12c-1.69-1.66-2.54-3.66-2.54-6.01s.85-4.36,2.54-6.05c1.69-1.69,3.71-2.54,6.05-2.54s4.35.85,6.01,2.54c1.66,1.69,2.49,3.71,2.49,6.05s-.83,4.35-2.49,6.01-3.66,2.49-6.01,2.49-4.36-.83-6.05-2.49Z"/>
      <path class="cls-5" d="M1163.87,117.05c-1.69-1.66-2.54-3.66-2.54-6.01s.85-4.35,2.54-6.01c1.69-1.66,3.71-2.49,6.05-2.49s4.35.83,6.01,2.49,2.49,3.66,2.49,6.01-.83,4.35-2.49,6.01-3.66,2.49-6.01,2.49-4.36-.83-6.05-2.49Z"/>
      <path class="cls-18" d="M1208.89,35.12c-1.69-1.66-2.54-3.66-2.54-6.01s.85-4.36,2.54-6.05c1.69-1.69,3.71-2.54,6.05-2.54s4.35.85,6.01,2.54c1.66,1.69,2.49,3.71,2.49,6.05s-.83,4.35-2.49,6.01-3.66,2.49-6.01,2.49-4.36-.83-6.05-2.49Z"/>
      <path class="cls-32" d="M1208.89,55.58c-1.69-1.69-2.54-3.71-2.54-6.05s.85-4.35,2.54-6.01c1.69-1.66,3.71-2.49,6.05-2.49s4.35.83,6.01,2.49,2.49,3.66,2.49,6.01-.83,4.36-2.49,6.05c-1.66,1.69-3.66,2.54-6.01,2.54s-4.36-.85-6.05-2.54Z"/>
      <path class="cls-8" d="M1208.89,76.04c-1.69-1.66-2.54-3.66-2.54-6.01s.85-4.35,2.54-6.01c1.69-1.66,3.71-2.49,6.05-2.49s4.35.83,6.01,2.49,2.49,3.66,2.49,6.01-.83,4.35-2.49,6.01-3.66,2.49-6.01,2.49-4.36-.83-6.05-2.49Z"/>
      <path class="cls-25" d="M1208.89,96.55c-1.69-1.66-2.54-3.66-2.54-6.01s.85-4.35,2.54-6.01c1.69-1.66,3.71-2.49,6.05-2.49s4.35.83,6.01,2.49,2.49,3.66,2.49,6.01-.83,4.35-2.49,6.01-3.66,2.49-6.01,2.49-4.36-.83-6.05-2.49Z"/>
      <path class="cls-5" d="M1208.89,117.05c-1.69-1.66-2.54-3.66-2.54-6.01s.85-4.35,2.54-6.01c1.69-1.66,3.71-2.49,6.05-2.49s4.35.83,6.01,2.49,2.49,3.66,2.49,6.01-.83,4.35-2.49,6.01-3.66,2.49-6.01,2.49-4.36-.83-6.05-2.49Z"/>
      <path class="cls-2" d="M1229.83,14.61c-1.66-1.66-2.49-3.66-2.49-6.01s.83-4.36,2.49-6.05c1.66-1.69,3.66-2.54,6.01-2.54s4.36.85,6.05,2.54c1.69,1.69,2.54,3.71,2.54,6.05s-.85,4.35-2.54,6.01c-1.69,1.66-3.71,2.49-6.05,2.49s-4.35-.83-6.01-2.49Z"/>
      <path class="cls-12" d="M1229.83,137.56c-1.66-1.66-2.49-3.66-2.49-6.01s.83-4.36,2.49-6.05c1.66-1.69,3.66-2.54,6.01-2.54s4.36.85,6.05,2.54c1.69,1.69,2.54,3.71,2.54,6.05s-.85,4.35-2.54,6.01c-1.69,1.66-3.71,2.49-6.05,2.49s-4.35-.83-6.01-2.49Z"/>
      <path class="cls-1" d="M1250.83,14.61c-1.66-1.66-2.49-3.66-2.49-6.01s.83-4.36,2.49-6.05c1.66-1.69,3.66-2.54,6.01-2.54s4.35.85,6.01,2.54c1.66,1.69,2.49,3.71,2.49,6.05s-.83,4.35-2.49,6.01-3.66,2.49-6.01,2.49-4.35-.83-6.01-2.49Z"/>
      <path class="cls-5" d="M1250.83,137.56c-1.66-1.66-2.49-3.66-2.49-6.01s.83-4.36,2.49-6.05c1.66-1.69,3.66-2.54,6.01-2.54s4.35.85,6.01,2.54c1.66,1.69,2.49,3.71,2.49,6.05s-.83,4.35-2.49,6.01-3.66,2.49-6.01,2.49-4.35-.83-6.01-2.49Z"/>
      <path class="cls-9" d="M1271.83,14.61c-1.66-1.66-2.49-3.66-2.49-6.01s.83-4.36,2.49-6.05c1.66-1.69,3.66-2.54,6.01-2.54s4.35.85,6.01,2.54c1.66,1.69,2.49,3.71,2.49,6.05s-.83,4.35-2.49,6.01-3.66,2.49-6.01,2.49-4.35-.83-6.01-2.49Z"/>
      <path class="cls-17" d="M1271.83,137.56c-1.66-1.66-2.49-3.66-2.49-6.01s.83-4.36,2.49-6.05c1.66-1.69,3.66-2.54,6.01-2.54s4.35.85,6.01,2.54c1.66,1.69,2.49,3.71,2.49,6.05s-.83,4.35-2.49,6.01-3.66,2.49-6.01,2.49-4.35-.83-6.01-2.49Z"/>
      <path class="cls-25" d="M1292.77,35.12c-1.69-1.66-2.54-3.66-2.54-6.01s.85-4.36,2.54-6.05c1.69-1.69,3.71-2.54,6.05-2.54s4.35.85,6.01,2.54c1.66,1.69,2.49,3.71,2.49,6.05s-.83,4.35-2.49,6.01-3.66,2.49-6.01,2.49-4.36-.83-6.05-2.49Z"/>
      <path class="cls-30" d="M1292.77,55.58c-1.69-1.69-2.54-3.71-2.54-6.05s.85-4.35,2.54-6.01c1.69-1.66,3.71-2.49,6.05-2.49s4.35.83,6.01,2.49,2.49,3.66,2.49,6.01-.83,4.36-2.49,6.05c-1.66,1.69-3.66,2.54-6.01,2.54s-4.36-.85-6.05-2.54Z"/>
      <path class="cls-25" d="M1292.77,76.04c-1.69-1.66-2.54-3.66-2.54-6.01s.85-4.35,2.54-6.01c1.69-1.66,3.71-2.49,6.05-2.49s4.35.83,6.01,2.49,2.49,3.66,2.49,6.01-.83,4.35-2.49,6.01-3.66,2.49-6.01,2.49-4.36-.83-6.05-2.49Z"/>
      <path class="cls-9" d="M1292.77,96.55c-1.69-1.66-2.54-3.66-2.54-6.01s.85-4.35,2.54-6.01c1.69-1.66,3.71-2.49,6.05-2.49s4.35.83,6.01,2.49,2.49,3.66,2.49,6.01-.83,4.35-2.49,6.01-3.66,2.49-6.01,2.49-4.36-.83-6.05-2.49Z"/>
      <path class="cls-25" d="M1292.77,117.05c-1.69-1.66-2.54-3.66-2.54-6.01s.85-4.35,2.54-6.01c1.69-1.66,3.71-2.49,6.05-2.49s4.35.83,6.01,2.49,2.49,3.66,2.49,6.01-.83,4.35-2.49,6.01-3.66,2.49-6.01,2.49-4.36-.83-6.05-2.49Z"/>
      <path class="cls-28" d="M1337.79,14.61c-1.69-1.66-2.54-3.66-2.54-6.01s.85-4.36,2.54-6.05c1.69-1.69,3.71-2.54,6.05-2.54s4.35.85,6.01,2.54c1.66,1.69,2.49,3.71,2.49,6.05s-.83,4.35-2.49,6.01-3.66,2.49-6.01,2.49-4.36-.83-6.05-2.49Z"/>
      <path class="cls-29" d="M1337.79,35.12c-1.69-1.66-2.54-3.66-2.54-6.01s.85-4.36,2.54-6.05c1.69-1.69,3.71-2.54,6.05-2.54s4.35.85,6.01,2.54c1.66,1.69,2.49,3.71,2.49,6.05s-.83,4.35-2.49,6.01-3.66,2.49-6.01,2.49-4.36-.83-6.05-2.49Z"/>
      <path class="cls-7" d="M1337.79,55.58c-1.69-1.69-2.54-3.71-2.54-6.05s.85-4.35,2.54-6.01c1.69-1.66,3.71-2.49,6.05-2.49s4.35.83,6.01,2.49,2.49,3.66,2.49,6.01-.83,4.36-2.49,6.05c-1.66,1.69-3.66,2.54-6.01,2.54s-4.36-.85-6.05-2.54Z"/>
      <path class="cls-24" d="M1337.79,76.04c-1.69-1.66-2.54-3.66-2.54-6.01s.85-4.35,2.54-6.01c1.69-1.66,3.71-2.49,6.05-2.49s4.35.83,6.01,2.49,2.49,3.66,2.49,6.01-.83,4.35-2.49,6.01-3.66,2.49-6.01,2.49-4.36-.83-6.05-2.49Z"/>
      <path class="cls-1" d="M1337.79,96.55c-1.69-1.66-2.54-3.66-2.54-6.01s.85-4.35,2.54-6.01c1.69-1.66,3.71-2.49,6.05-2.49s4.35.83,6.01,2.49,2.49,3.66,2.49,6.01-.83,4.35-2.49,6.01-3.66,2.49-6.01,2.49-4.36-.83-6.05-2.49Z"/>
      <path class="cls-8" d="M1337.79,117.05c-1.69-1.66-2.54-3.66-2.54-6.01s.85-4.35,2.54-6.01c1.69-1.66,3.71-2.49,6.05-2.49s4.35.83,6.01,2.49,2.49,3.66,2.49,6.01-.83,4.35-2.49,6.01-3.66,2.49-6.01,2.49-4.36-.83-6.05-2.49Z"/>
      <path class="cls-10" d="M1337.79,137.56c-1.69-1.66-2.54-3.66-2.54-6.01s.85-4.36,2.54-6.05c1.69-1.69,3.71-2.54,6.05-2.54s4.35.85,6.01,2.54c1.66,1.69,2.49,3.71,2.49,6.05s-.83,4.35-2.49,6.01-3.66,2.49-6.01,2.49-4.36-.83-6.05-2.49Z"/>
      <path class="cls-5" d="M1358.74,35.12c-1.66-1.66-2.49-3.66-2.49-6.01s.83-4.36,2.49-6.05c1.66-1.69,3.66-2.54,6.01-2.54s4.36.85,6.05,2.54c1.69,1.69,2.54,3.71,2.54,6.05s-.85,4.35-2.54,6.01c-1.69,1.66-3.71,2.49-6.05,2.49s-4.35-.83-6.01-2.49Z"/>
      <path class="cls-22" d="M1379.74,55.58c-1.66-1.69-2.49-3.71-2.49-6.05s.83-4.35,2.49-6.01,3.66-2.49,6.01-2.49,4.35.83,6.01,2.49,2.49,3.66,2.49,6.01-.83,4.36-2.49,6.05c-1.66,1.69-3.66,2.54-6.01,2.54s-4.35-.85-6.01-2.54Z"/>
      <path class="cls-23" d="M1379.74,76.04c-1.66-1.66-2.49-3.66-2.49-6.01s.83-4.35,2.49-6.01,3.66-2.49,6.01-2.49,4.35.83,6.01,2.49,2.49,3.66,2.49,6.01-.83,4.35-2.49,6.01-3.66,2.49-6.01,2.49-4.35-.83-6.01-2.49Z"/>
      <path class="cls-28" d="M1400.73,35.12c-1.66-1.66-2.49-3.66-2.49-6.01s.83-4.36,2.49-6.05c1.66-1.69,3.66-2.54,6.01-2.54s4.35.85,6.01,2.54c1.66,1.69,2.49,3.71,2.49,6.05s-.83,4.35-2.49,6.01-3.66,2.49-6.01,2.49-4.35-.83-6.01-2.49Z"/>
      <path class="cls-23" d="M1421.68,14.61c-1.69-1.66-2.54-3.66-2.54-6.01s.85-4.36,2.54-6.05c1.69-1.69,3.71-2.54,6.05-2.54s4.35.85,6.01,2.54c1.66,1.69,2.49,3.71,2.49,6.05s-.83,4.35-2.49,6.01-3.66,2.49-6.01,2.49-4.36-.83-6.05-2.49Z"/>
      <path class="cls-29" d="M1421.68,35.12c-1.69-1.66-2.54-3.66-2.54-6.01s.85-4.36,2.54-6.05c1.69-1.69,3.71-2.54,6.05-2.54s4.35.85,6.01,2.54c1.66,1.69,2.49,3.71,2.49,6.05s-.83,4.35-2.49,6.01-3.66,2.49-6.01,2.49-4.36-.83-6.05-2.49Z"/>
      <path class="cls-8" d="M1421.68,55.58c-1.69-1.69-2.54-3.71-2.54-6.05s.85-4.35,2.54-6.01c1.69-1.66,3.71-2.49,6.05-2.49s4.35.83,6.01,2.49,2.49,3.66,2.49,6.01-.83,4.36-2.49,6.05c-1.66,1.69-3.66,2.54-6.01,2.54s-4.36-.85-6.05-2.54Z"/>
      <path class="cls-10" d="M1421.68,76.04c-1.69-1.66-2.54-3.66-2.54-6.01s.85-4.35,2.54-6.01c1.69-1.66,3.71-2.49,6.05-2.49s4.35.83,6.01,2.49,2.49,3.66,2.49,6.01-.83,4.35-2.49,6.01-3.66,2.49-6.01,2.49-4.36-.83-6.05-2.49Z"/>
      <path class="cls-17" d="M1421.68,96.55c-1.69-1.66-2.54-3.66-2.54-6.01s.85-4.35,2.54-6.01c1.69-1.66,3.71-2.49,6.05-2.49s4.35.83,6.01,2.49,2.49,3.66,2.49,6.01-.83,4.35-2.49,6.01-3.66,2.49-6.01,2.49-4.36-.83-6.05-2.49Z"/>
      <path class="cls-1" d="M1421.68,117.05c-1.69-1.66-2.54-3.66-2.54-6.01s.85-4.35,2.54-6.01c1.69-1.66,3.71-2.49,6.05-2.49s4.35.83,6.01,2.49,2.49,3.66,2.49,6.01-.83,4.35-2.49,6.01-3.66,2.49-6.01,2.49-4.36-.83-6.05-2.49Z"/>
      <path class="cls-4" d="M1421.68,137.56c-1.69-1.66-2.54-3.66-2.54-6.01s.85-4.36,2.54-6.05c1.69-1.69,3.71-2.54,6.05-2.54s4.35.85,6.01,2.54c1.66,1.69,2.49,3.71,2.49,6.05s-.83,4.35-2.49,6.01-3.66,2.49-6.01,2.49-4.36-.83-6.05-2.49Z"/>
      <path class="cls-17" d="M1466.7,14.61c-1.69-1.66-2.54-3.66-2.54-6.01s.85-4.36,2.54-6.05c1.69-1.69,3.71-2.54,6.05-2.54s4.35.85,6.01,2.54c1.66,1.69,2.49,3.71,2.49,6.05s-.83,4.35-2.49,6.01-3.66,2.49-6.01,2.49-4.36-.83-6.05-2.49Z"/>
      <path class="cls-25" d="M1466.7,35.12c-1.69-1.66-2.54-3.66-2.54-6.01s.85-4.36,2.54-6.05c1.69-1.69,3.71-2.54,6.05-2.54s4.35.85,6.01,2.54c1.66,1.69,2.49,3.71,2.49,6.05s-.83,4.35-2.49,6.01-3.66,2.49-6.01,2.49-4.36-.83-6.05-2.49Z"/>
      <path class="cls-3" d="M1466.7,55.58c-1.69-1.69-2.54-3.71-2.54-6.05s.85-4.35,2.54-6.01c1.69-1.66,3.71-2.49,6.05-2.49s4.35.83,6.01,2.49,2.49,3.66,2.49,6.01-.83,4.36-2.49,6.05c-1.66,1.69-3.66,2.54-6.01,2.54s-4.36-.85-6.05-2.54Z"/>
      <path class="cls-18" d="M1466.7,76.04c-1.69-1.66-2.54-3.66-2.54-6.01s.85-4.35,2.54-6.01c1.69-1.66,3.71-2.49,6.05-2.49s4.35.83,6.01,2.49,2.49,3.66,2.49,6.01-.83,4.35-2.49,6.01-3.66,2.49-6.01,2.49-4.36-.83-6.05-2.49Z"/>
      <path class="cls-25" d="M1466.7,96.55c-1.69-1.66-2.54-3.66-2.54-6.01s.85-4.35,2.54-6.01c1.69-1.66,3.71-2.49,6.05-2.49s4.35.83,6.01,2.49,2.49,3.66,2.49,6.01-.83,4.35-2.49,6.01-3.66,2.49-6.01,2.49-4.36-.83-6.05-2.49Z"/>
      <path class="cls-6" d="M1466.7,117.05c-1.69-1.66-2.54-3.66-2.54-6.01s.85-4.35,2.54-6.01c1.69-1.66,3.71-2.49,6.05-2.49s4.35.83,6.01,2.49,2.49,3.66,2.49,6.01-.83,4.35-2.49,6.01-3.66,2.49-6.01,2.49-4.36-.83-6.05-2.49Z"/>
      <path class="cls-9" d="M1466.7,137.56c-1.69-1.66-2.54-3.66-2.54-6.01s.85-4.36,2.54-6.05c1.69-1.69,3.71-2.54,6.05-2.54s4.35.85,6.01,2.54c1.66,1.69,2.49,3.71,2.49,6.05s-.83,4.35-2.49,6.01-3.66,2.49-6.01,2.49-4.36-.83-6.05-2.49Z"/>
      <path class="cls-14" d="M1485.25,9.97c-.07-.52-.1-1.04-.1-1.56,0-1.82.52-3.45,1.56-4.88,1.37-1.95,3.22-3.09,5.57-3.42.52-.06,1.01-.1,1.46-.1,1.69,0,3.32.52,4.88,1.56,1.95,1.43,3.12,3.32,3.52,5.66.06.52.13,1.01.2,1.46,0,1.76-.59,3.39-1.76,4.88-1.43,1.89-3.29,3.03-5.57,3.42-.52.07-1.04.1-1.56.1-1.76,0-3.35-.52-4.79-1.56-1.89-1.37-3.03-3.22-3.42-5.57Z"/>
      <path class="cls-7" d="M1485.25,71.4c-.07-.52-.1-1.04-.1-1.56,0-1.76.52-3.35,1.56-4.79,1.37-1.89,3.22-3.03,5.57-3.42.52-.06,1.04-.1,1.56-.1,1.76,0,3.35.52,4.79,1.56,1.95,1.37,3.12,3.22,3.52,5.57.06.52.13,1.01.2,1.46,0,1.76-.59,3.39-1.76,4.88-1.43,1.89-3.29,3.03-5.57,3.42-.52.07-1.04.1-1.56.1-1.76,0-3.35-.52-4.79-1.56-1.89-1.37-3.03-3.22-3.42-5.57Z"/>
      <path class="cls-23" d="M1485.25,132.92c-.07-.52-.1-1.04-.1-1.56,0-1.76.52-3.35,1.56-4.79,1.37-1.95,3.22-3.12,5.57-3.52.52-.06,1.01-.1,1.46-.1,1.69.07,3.32.62,4.88,1.66,1.95,1.43,3.12,3.29,3.52,5.57.06.52.13,1.01.2,1.46,0,1.76-.59,3.39-1.76,4.88-1.43,1.89-3.29,3.03-5.57,3.42-.52.07-1.04.1-1.56.1-1.76,0-3.35-.52-4.79-1.56-1.89-1.37-3.03-3.22-3.42-5.57Z"/>
      <path class="cls-31" d="M1508.64,14.61c-1.66-1.66-2.49-3.66-2.49-6.01s.83-4.36,2.49-6.05c1.66-1.69,3.66-2.54,6.01-2.54s4.35.85,6.01,2.54c1.66,1.69,2.49,3.71,2.49,6.05s-.83,4.35-2.49,6.01-3.66,2.49-6.01,2.49-4.35-.83-6.01-2.49Z"/>
      <path class="cls-29" d="M1508.64,76.04c-1.66-1.66-2.49-3.66-2.49-6.01s.83-4.35,2.49-6.01,3.66-2.49,6.01-2.49,4.35.83,6.01,2.49,2.49,3.66,2.49,6.01-.83,4.35-2.49,6.01-3.66,2.49-6.01,2.49-4.35-.83-6.01-2.49Z"/>
      <path class="cls-24" d="M1508.64,137.56c-1.66-1.66-2.49-3.66-2.49-6.01s.83-4.36,2.49-6.05c1.66-1.69,3.66-2.54,6.01-2.54s4.35.85,6.01,2.54c1.66,1.69,2.49,3.71,2.49,6.05s-.83,4.35-2.49,6.01-3.66,2.49-6.01,2.49-4.35-.83-6.01-2.49Z"/>
      <path class="cls-11" d="M1529.64,14.61c-1.66-1.66-2.49-3.66-2.49-6.01s.83-4.36,2.49-6.05c1.66-1.69,3.66-2.54,6.01-2.54s4.35.85,6.01,2.54c1.66,1.69,2.49,3.71,2.49,6.05s-.83,4.35-2.49,6.01-3.66,2.49-6.01,2.49-4.35-.83-6.01-2.49Z"/>
      <path class="cls-15" d="M1529.64,76.04c-1.66-1.66-2.49-3.66-2.49-6.01s.83-4.35,2.49-6.01,3.66-2.49,6.01-2.49,4.35.83,6.01,2.49,2.49,3.66,2.49,6.01-.83,4.35-2.49,6.01-3.66,2.49-6.01,2.49-4.35-.83-6.01-2.49Z"/>
      <path class="cls-29" d="M1529.64,137.56c-1.66-1.66-2.49-3.66-2.49-6.01s.83-4.36,2.49-6.05c1.66-1.69,3.66-2.54,6.01-2.54s4.35.85,6.01,2.54c1.66,1.69,2.49,3.71,2.49,6.05s-.83,4.35-2.49,6.01-3.66,2.49-6.01,2.49-4.35-.83-6.01-2.49Z"/>
      <path class="cls-21" d="M1548.63,11.93c-.46-1.04-.65-2.15-.59-3.32,0-1.11.23-2.21.68-3.32.85-2.21,2.38-3.77,4.59-4.69,1.04-.45,2.12-.65,3.22-.59,1.11,0,2.21.23,3.32.68,2.15.85,3.68,2.38,4.59,4.59.46,1.04.68,2.12.68,3.22s-.23,2.21-.68,3.32c-.78,2.15-2.28,3.68-4.49,4.59-1.04.46-2.15.68-3.32.68-1.11,0-2.21-.23-3.32-.68-2.21-.78-3.78-2.28-4.69-4.49Z"/>
      <path class="cls-15" d="M1548.24,132.92c-.07-.52-.1-1.04-.1-1.56,0-1.76.52-3.35,1.56-4.79,1.37-1.95,3.22-3.12,5.57-3.52.52-.06,1.01-.1,1.46-.1,1.76.07,3.38.62,4.88,1.66,1.89,1.43,3.03,3.29,3.42,5.57.06.52.13,1.04.2,1.56,0,1.76-.55,3.35-1.66,4.79-1.37,1.89-3.22,3.03-5.57,3.42-.52.07-1.04.1-1.56.1-1.76,0-3.35-.52-4.79-1.56-1.89-1.37-3.03-3.22-3.42-5.57Z"/>
    </g>
  </g>
</svg>